# xmcd
#
# Track frame offsets: 
#        150
#        5677
#        30576
#        35355
#        44237
#        60093
#        68202
#        86870
#        99758
#        107754
#        115512
#        144187
#        153945
#        159622
#        164523
#        171353
#        178307
#        184777
#        189525
#        195245
#        201024
#        204915
#        210343
#        218469
#        227410
#        232781
#        240575
#        247239
#        250577
#        254500
#        262542
#        264972
#        270236
#
# Disc length: 3684 seconds
#
# Revision: 0
# Processed by: cddbd v1.5.2PL0 Copyright (c) Steve Scherf et al.
# Submitted via: ExactAudioCopyFreeDBPlugin 1.0
#
DISCID=ac0e6221
DTITLE=Stefan Grossman - Fingerpicking Guitar Exercises and Hot Licks Le
DTITLE=sson 3
DYEAR=1999
DGENRE=Instructional
TTITLE0=Introduction and Tuning
TTITLE1=Walking The Bass - Ex.01a
TTITLE2=Walking The Bass - Ex.01b
TTITLE3=Walking The Bass - Ex.01c
TTITLE4=Chromatic Runs And Hot Licks - Ex.01
TTITLE5=Chromatic Runs And Hot Licks - Ex.02
TTITLE6=Chromatic Runs And Hot Licks - Ex.03
TTITLE7=Chromatic Runs And Hot Licks - Ex.04
TTITLE8=Chromatic Runs And Hot Licks - Ex.05
TTITLE9=Chromatic Runs And Hot Licks - Ex.06
TTITLE10=Chromatic Runs And Hot Licks - Ex.07
TTITLE11=End Tags - Ex.01
TTITLE12=End Tags - Ex.02
TTITLE13=End Tags - Ex.03
TTITLE14=End Tags - Ex.04
TTITLE15=End Tags - Ex.05
TTITLE16=End Tags - Ex.06
TTITLE17=End Tags - Ex.07
TTITLE18=End Tags - Ex.08
TTITLE19=End Tags - Ex.09
TTITLE20=End Tags - Ex.10
TTITLE21=End Tags - Ex.11
TTITLE22=End Tags - Ex.12
TTITLE23=End Tags - Ex.13
TTITLE24=End Tags - Ex.14
TTITLE25=End Tags - Ex.15
TTITLE26=End Tags - Ex.16
TTITLE27=End Tags - Ex.17
TTITLE28=End Tags - Ex.18
TTITLE29=End Tags - Ex.19
TTITLE30=End Tags - Ex.20
TTITLE31=End Tags - Ex.21
TTITLE32=End Tags - Ex.22
EXTD=
EXTT0=
EXTT1=
EXTT2=
EXTT3=
EXTT4=
EXTT5=
EXTT6=
EXTT7=
EXTT8=
EXTT9=
EXTT10=
EXTT11=
EXTT12=
EXTT13=
EXTT14=
EXTT15=
EXTT16=
EXTT17=
EXTT18=
EXTT19=
EXTT20=
EXTT21=
EXTT22=
EXTT23=
EXTT24=
EXTT25=
EXTT26=
EXTT27=
EXTT28=
EXTT29=
EXTT30=
EXTT31=
EXTT32=
PLAYORDER=
